<?xml version="1.0" encoding="utf-8"?>
<!-- Generator: Adobe Illustrator 22.0.0, SVG Export Plug-In . SVG Version: 6.00 Build 0)  -->
<svg version="1.1" id="Layer_1" xmlns="http://www.w3.org/2000/svg" xmlns:xlink="http://www.w3.org/1999/xlink" x="0px" y="0px"
	 width="190px" height="70px" viewBox="0 0 190 70" style="enable-background:new 0 0 190 70;" xml:space="preserve">
<style type="text/css">
	.st0{fill:#FFFFFF;}
	.st1{fill:#FAA814;}
	.st2{fill:#DC4623;}
	.st3{fill:#908883;}
</style>
<path class="st0" d="M10.1,32.3c0,0,12.3-14.3,57.6-24.4c0,0,50-7.8,85.6-0.1c0,0,47.9,9.4,24.9,31.2c0,0-12,14.7-63.3,23.4
	c0,0-56.3,9.9-94.2-5.4C20.7,57.1-4.3,47.7,10.1,32.3z"/>
<g>
	<path class="st1" d="M97.2,64.3c-49.1,4.1-90-5.8-91.3-22c-0.3-3.3,1.1-6.6,3.9-9.8C3.5,37.9,0.3,43.6,1.1,49
		c2.5,17.5,46.6,25.4,98.5,17.7c18.5-2.8,35.5-7.1,49.6-12.4C134.8,59,116.8,62.6,97.2,64.3z"/>
	<path class="st1" d="M188.9,21C186.4,3.5,142.3-4.4,90.4,3.3C74,5.7,58.9,9.4,45.9,13.9C59.3,10,75.2,7,92.5,5.6
		c49.1-4.1,90,5.8,91.3,22c0.3,3.9-1.7,7.8-5.6,11.5C185.8,33.1,189.7,26.9,188.9,21z"/>
	<path class="st2" d="M27.3,26.2c-0.9-0.8-2-1.2-3.4-1.2c-1.5,0-2.7,0.3-3.8,1c-1.1,0.7-2,1.6-2.7,2.6c-0.7,1.1-1.2,2.3-1.6,3.6
		c-0.3,1.3-0.5,2.6-0.5,3.9c0,0.9,0.1,1.8,0.3,2.6c0.2,0.8,0.6,1.5,1.1,2.2c0.5,0.6,1.1,1.1,1.8,1.5c0.7,0.4,1.6,0.6,2.7,0.6
		c0.8,0,1.5-0.1,2.2-0.4c0.7-0.3,1.3-0.7,1.8-1.1s1-1,1.4-1.7c0.4-0.6,0.6-1.3,0.7-2h5.7c-0.6,1.8-1.3,3.4-2.1,4.7
		c-0.8,1.3-1.7,2.3-2.7,3.1c-1,0.8-2.1,1.4-3.3,1.7c-1.2,0.4-2.5,0.5-3.9,0.5c-3.7,0-6.6-1-8.6-3s-3-4.9-3-8.7c0-2.1,0.3-4.2,1-6.1
		c0.7-1.9,1.6-3.6,2.8-5.1c1.2-1.5,2.7-2.6,4.5-3.5c1.8-0.9,3.7-1.3,5.9-1.3c1.5,0,2.9,0.2,4.2,0.6c1.3,0.4,2.4,1,3.3,1.9
		c0.9,0.8,1.7,1.8,2.2,3.1s0.8,2.6,0.7,4.2h-5.7C28.6,28.2,28.1,27,27.3,26.2z"/>
	<path class="st2" d="M45.7,20.7l-5.5,26.4h-5.7l5.5-26.4H45.7z"/>
	<path class="st2" d="M64.1,44.4c-0.9,1.2-1.8,2-3,2.5c-1.1,0.5-2.3,0.8-3.6,0.8c-3.7,0-6.6-1-8.6-3c-2-2-3-4.9-3-8.7
		c0-2.1,0.3-4.2,1-6.1c0.7-1.9,1.6-3.6,2.8-5.1c1.2-1.5,2.7-2.6,4.5-3.5c1.8-0.9,3.7-1.3,5.9-1.3c1.5,0,3,0.2,4.3,0.6
		c1.3,0.4,2.5,0.9,3.5,1.7c1,0.8,1.8,1.7,2.4,2.9c0.6,1.2,0.9,2.6,0.9,4.2h-5.7c-0.1-1.6-0.6-2.8-1.5-3.5c-0.9-0.7-2.2-1-3.8-1
		c-1.5,0-2.7,0.3-3.8,1c-1.1,0.7-2,1.6-2.7,2.6c-0.7,1.1-1.2,2.3-1.6,3.6c-0.3,1.3-0.5,2.6-0.5,3.9c0,0.9,0.1,1.8,0.3,2.6
		c0.2,0.8,0.6,1.5,1.1,2.2c0.5,0.6,1.1,1.1,1.8,1.5c0.7,0.4,1.6,0.6,2.7,0.6c1.1,0,2-0.1,2.8-0.4c0.8-0.3,1.5-0.7,2-1.2
		c0.6-0.5,1-1.1,1.4-1.8c0.4-0.7,0.7-1.5,0.9-2.3h-6l0.9-4.3h11.1l-3,14.3h-3.6L64.1,44.4L64.1,44.4z"/>
	<path class="st2" d="M90.8,20.7l4.3,26.4h-5.7l-0.8-5.9h-9.7l-3.3,5.9h-6l15.4-26.4H90.8z M88.1,36.9l-1.3-10.5h-0.1l-5.6,10.5
		H88.1z"/>
	<path class="st2" d="M115.1,20.7c1.2,0,2.2,0.1,3.2,0.3c1,0.2,1.8,0.6,2.5,1.2c0.7,0.6,1.2,1.3,1.6,2.2c0.4,0.9,0.5,2,0.5,3.3
		c0,0.9-0.1,1.7-0.4,2.6c-0.3,0.8-0.7,1.5-1.2,2.2c-0.5,0.6-1.2,1.2-1.9,1.6c-0.7,0.4-1.5,0.7-2.4,0.8v0.1c1.1,0.3,1.8,0.9,2.2,1.8
		c0.4,0.9,0.5,1.8,0.5,2.9c0,0.6,0,1.3-0.1,2.1c-0.1,0.8-0.1,1.6-0.1,2.5c0,0.6,0,1.2,0.1,1.7c0,0.5,0.1,1,0.3,1.4h-5.6
		c-0.1-0.3-0.1-0.6-0.2-0.9c0-0.3-0.1-0.6-0.1-0.9c0-0.9,0-1.8,0.1-2.7c0.1-0.9,0.1-1.8,0.1-2.7c0-0.6-0.1-1.2-0.3-1.6
		c-0.2-0.4-0.4-0.7-0.8-1c-0.3-0.2-0.7-0.4-1.2-0.5c-0.5-0.1-1-0.1-1.5-0.1h-5.4l-2.2,10.3h-5.7l5.4-26.4H115.1z M111.3,32.6
		c0.8,0,1.5-0.1,2.2-0.2c0.7-0.2,1.3-0.4,1.9-0.7c0.5-0.3,1-0.8,1.3-1.3c0.3-0.5,0.5-1.2,0.5-1.9c0-0.7-0.1-1.3-0.3-1.7
		s-0.5-0.8-0.9-1c-0.4-0.2-0.8-0.4-1.4-0.4c-0.5-0.1-1-0.1-1.6-0.1h-5.4l-1.5,7.4H111.3z"/>
	<path class="st3" d="M139.7,20.7c1,0,1.9,0.1,2.8,0.3c0.9,0.2,1.6,0.6,2.3,1c0.7,0.5,1.2,1.1,1.6,1.9c0.4,0.8,0.6,1.7,0.6,2.8
		c0,1.8-0.5,3.2-1.6,4.4c-1,1.2-2.4,1.9-4.1,2.2v0.1c1.4,0.2,2.5,0.8,3.3,1.8c0.8,1,1.2,2.2,1.2,3.6c0,1.6-0.3,2.9-0.9,3.9
		s-1.4,1.9-2.3,2.6c-1,0.6-2.1,1.1-3.3,1.4c-1.3,0.3-2.6,0.4-3.9,0.4h-11.2l5.7-26.4H139.7z M135.7,44.9c0.9,0,1.8-0.1,2.7-0.3
		s1.7-0.6,2.4-1c0.7-0.5,1.3-1.1,1.7-1.8c0.4-0.7,0.7-1.6,0.7-2.7c0-1-0.2-1.7-0.5-2.3c-0.3-0.6-0.8-1.1-1.4-1.4
		c-0.6-0.4-1.2-0.6-2-0.7c-0.7-0.1-1.5-0.2-2.3-0.2h-7.8l-2.3,10.5H135.7z M137.8,32.3c0.9,0,1.7-0.1,2.4-0.4c0.8-0.2,1.5-0.5,2.1-1
		c0.6-0.4,1.1-1,1.5-1.6c0.4-0.7,0.5-1.4,0.5-2.4c0-0.7-0.1-1.4-0.4-1.9c-0.2-0.5-0.6-1-1-1.3c-0.4-0.3-0.9-0.6-1.5-0.7
		s-1.2-0.2-1.8-0.2h-8l-2,9.4H137.8z"/>
	<path class="st3" d="M156.2,20.7l-5.5,26.4h-2.5l5.5-26.4H156.2z"/>
	<path class="st3" d="M170.4,20.7c1.9,0,3.4,0.3,4.7,0.8c1.3,0.5,2.3,1.2,3.1,2.1c0.8,0.9,1.3,2,1.7,3.3c0.3,1.3,0.5,2.7,0.5,4.3
		c0,2.1-0.3,4.1-0.9,6c-0.6,1.9-1.5,3.6-2.7,5.1c-1.2,1.5-2.7,2.6-4.5,3.5c-1.8,0.9-3.8,1.3-6.2,1.3h-9.7l5.7-26.4H170.4z
		 M165.6,44.9c2.2,0,4-0.4,5.6-1.1c1.5-0.8,2.8-1.8,3.8-3.2c1-1.3,1.7-2.8,2.2-4.6c0.5-1.7,0.7-3.5,0.7-5.3c0-5.3-2.6-8-7.8-8H164
		l-4.7,22.1H165.6z"/>
</g>
</svg>
